<svg enable-background="new 0 0 96 96" version="1.1" viewBox="0 0 96 96" xml:space="preserve" xmlns="http://www.w3.org/2000/svg">
<circle cx="48" cy="48.001" r="44" fill="#fff" opacity=".15"/>
<path d="m63.398 67.047h-30.797c-1.986 0-3.602-1.616-3.602-3.603v-30.796c0-1.986 1.616-3.602 3.602-3.602h30.797c1.986 0 3.602 1.616 3.602 3.602v30.796c0 1.987-1.616 3.603-3.602 3.603zm-30.796-36.001c-0.883 0-1.602 0.718-1.602 1.602v30.796c0 0.884 0.718 1.603 1.602 1.603h30.797c0.883 0 1.602-0.719 1.602-1.603v-30.796c0-0.883-0.718-1.602-1.602-1.602z" fill="#fff"/>
</svg>
